<?xml version="1.0" standalone="no"?>
<!DOCTYPE svg PUBLIC "-//W3C//DTD SVG 20010904//EN"
 "http://www.w3.org/TR/2001/REC-SVG-20010904/DTD/svg10.dtd">
<svg version="1.0" xmlns="http://www.w3.org/2000/svg"
 width="894.000000pt" height="894.000000pt" viewBox="0 0 894.000000 894.000000"
 preserveAspectRatio="xMidYMid meet">
<metadata>
Created by potrace 1.14, written by Peter Selinger 2001-2017
</metadata>
<g transform="translate(0.000000,894.000000) scale(0.100000,-0.100000)"
fill="#000000" stroke="none">
<path d="M4288 7165 c-4 -4 -119 -16 -145 -16 -12 1 -25 -4 -28 -9 -3 -5 -12
-7 -19 -4 -7 3 -51 -4 -97 -16 -46 -12 -93 -24 -104 -26 -11 -3 -24 -6 -30 -8
-5 -2 -23 -6 -40 -11 -16 -4 -34 -10 -40 -14 -5 -3 -14 -6 -20 -8 -21 -5 -99
-35 -119 -46 -12 -6 -23 -12 -26 -12 -3 -1 -21 -8 -40 -17 -19 -8 -39 -15 -44
-16 -5 0 -12 -4 -15 -9 -3 -4 -31 -21 -61 -37 -69 -36 -236 -147 -278 -184
-17 -15 -48 -42 -70 -59 -41 -34 -173 -164 -207 -205 -10 -12 -48 -61 -82
-108 -35 -47 -67 -89 -71 -95 -49 -64 -188 -335 -184 -357 1 -5 -3 -8 -10 -8
-6 0 -9 -3 -5 -6 3 -3 -3 -26 -13 -50 -11 -24 -17 -44 -14 -44 2 0 -1 -10 -7
-22 -7 -13 -16 -38 -21 -58 -15 -60 -16 -65 -18 -67 -3 -3 -4 -7 -13 -53 -4
-19 -10 -46 -13 -60 -3 -14 -7 -38 -9 -55 -2 -16 -6 -43 -9 -60 -19 -99 -26
-334 -13 -405 5 -25 10 -52 11 -60 1 -8 6 -24 10 -35 15 -38 19 -50 20 -55 1
-3 12 -21 26 -40 125 -176 339 -234 533 -145 71 32 156 114 192 184 41 81 44
101 50 291 6 169 7 184 29 270 34 130 117 318 154 348 9 6 12 12 7 12 -4 0 2
8 13 19 12 10 22 22 22 25 0 4 6 13 13 20 6 7 24 29 39 48 161 205 455 368
728 405 110 14 360 5 440 -17 25 -7 52 -13 60 -15 73 -15 267 -112 356 -179
94 -70 244 -221 244 -246 0 -5 4 -10 8 -10 5 0 15 -12 23 -27 8 -16 27 -48 43
-72 38 -58 104 -210 111 -258 l6 -38 -423 -140 c-233 -76 -425 -139 -428 -140
-3 0 -111 -36 -240 -80 -129 -44 -237 -80 -240 -80 -3 0 -30 -9 -60 -20 -30
-10 -59 -20 -65 -22 -68 -18 -1126 -378 -1156 -394 -50 -25 -149 -121 -149
-143 0 -9 -4 -16 -9 -16 -5 0 -19 -26 -31 -57 -24 -65 -33 -179 -19 -245 12
-54 52 -139 73 -157 9 -7 16 -17 16 -22 0 -5 8 -17 18 -27 9 -10 35 -40 57
-67 43 -52 191 -205 198 -205 3 0 20 -14 38 -31 19 -18 70 -58 114 -90 44 -32
85 -62 91 -66 25 -20 213 -124 227 -128 11 -2 51 -18 122 -50 76 -35 310 -101
390 -111 17 -2 48 -6 70 -10 107 -18 326 -25 390 -13 94 17 187 74 252 151 25
30 75 118 67 118 -2 0 1 10 8 23 15 28 20 164 7 214 -16 60 -52 137 -76 161
-7 7 -18 21 -25 30 -23 30 -94 81 -144 103 -59 25 -84 29 -194 34 -131 6 -214
18 -310 44 -25 7 -52 15 -60 18 -8 3 -18 5 -22 5 -5 -1 -8 2 -8 7 0 6 797 281
830 286 13 2 327 108 345 116 11 5 29 11 40 13 11 3 40 12 65 21 25 9 52 18
60 20 8 3 62 21 120 40 58 20 112 38 120 40 8 2 146 48 307 103 320 107 368
132 437 222 21 28 49 80 62 116 22 59 24 77 20 202 -2 75 -7 155 -10 177 -3
22 -7 56 -10 75 -46 324 -211 697 -425 960 -116 141 -385 378 -489 430 -15 8
-34 19 -42 26 -29 22 -166 92 -240 122 -155 63 -321 114 -415 126 -11 1 -38 6
-60 9 -84 15 -456 32 -467 22z"/>
<path d="M367 2654 c-1 -1 -20 -4 -42 -7 -103 -12 -219 -96 -268 -194 -22 -44
-30 -66 -45 -133 -7 -32 -7 -198 1 -230 45 -205 178 -315 382 -315 140 1 214
26 288 100 42 42 102 154 89 167 -4 4 -38 10 -75 12 l-68 5 -15 -34 c-45 -109
-181 -163 -296 -118 -86 33 -153 132 -161 239 l-2 29 305 1 c168 1 310 2 316
3 15 2 8 112 -12 191 -9 36 -30 84 -45 108 -16 24 -29 46 -29 50 -1 8 -83 71
-114 87 -39 20 -101 35 -154 38 -29 2 -54 2 -55 1z m124 -138 c72 -30 136
-123 135 -196 l-1 -25 -233 0 -232 -1 6 36 c9 54 48 122 87 154 63 51 161 64
238 32z"/>
<path d="M1753 2644 c-69 -14 -143 -43 -143 -55 0 -5 -4 -9 -9 -9 -13 0 -70
-58 -63 -65 3 -3 0 -5 -6 -5 -7 0 -12 -7 -12 -15 0 -8 -3 -15 -8 -15 -8 0 -29
-43 -42 -92 -38 -130 -28 -320 21 -409 7 -13 12 -27 11 -31 -5 -17 110 -118
164 -144 52 -25 70 -28 159 -28 88 -1 107 2 155 25 58 28 140 97 140 117 0 7
3 12 8 12 11 0 54 117 50 137 -2 10 -12 19 -23 20 -11 1 -41 4 -66 6 l-45 5
-12 -43 c-19 -70 -48 -110 -103 -140 -45 -24 -59 -27 -113 -22 -71 6 -115 26
-152 69 -46 56 -71 150 -68 263 4 159 44 241 140 286 117 56 245 6 284 -110
10 -32 17 -40 31 -36 16 6 82 16 107 18 16 1 16 7 -10 74 -54 146 -218 223
-395 187z"/>
<path d="M2618 2654 c-2 -1 -19 -4 -38 -6 -43 -6 -60 -12 -126 -44 -125 -61
-191 -179 -198 -354 -12 -251 88 -414 285 -466 198 -51 412 51 475 228 28 78
37 238 20 332 -33 173 -177 298 -356 309 -33 2 -61 3 -62 1z m123 -138 c105
-45 158 -153 153 -312 -3 -102 -6 -118 -32 -176 -54 -120 -200 -171 -317 -112
-102 52 -145 150 -139 316 4 116 20 166 71 224 69 76 171 99 264 60z"/>
<path d="M3534 2644 c-76 -18 -99 -30 -143 -74 -23 -23 -42 -36 -42 -28 -1 7
-2 31 -3 53 l-1 40 -65 0 -65 0 0 -423 0 -422 72 0 73 0 0 228 c1 276 4 338
21 377 7 17 13 32 13 35 1 3 8 15 16 27 43 60 163 89 231 55 18 -9 42 -33 54
-52 19 -33 20 -51 20 -352 l0 -318 73 0 72 0 0 68 c0 37 1 168 3 292 2 213 3
227 25 269 29 55 42 67 93 91 52 22 136 21 173 -4 60 -39 61 -41 63 -386 1
-173 2 -319 2 -323 1 -4 34 -7 73 -5 l72 3 1 305 c0 271 -4 346 -23 400 -3 8
-5 18 -4 22 4 18 -90 106 -120 113 -18 4 -40 9 -48 12 -20 5 -119 5 -146 -1
-41 -9 -100 -45 -142 -87 -23 -23 -44 -40 -45 -38 -66 97 -109 123 -223 133
-16 1 -52 -3 -80 -10z"/>
<path d="M4865 2639 c-38 -12 -76 -33 -105 -58 -25 -21 -48 -37 -53 -34 -4 2
-6 22 -3 44 2 21 1 40 -2 40 -23 4 -109 5 -118 2 -8 -3 -11 -127 -11 -424 l0
-419 71 0 71 0 2 258 c2 260 5 309 23 357 12 31 59 95 68 93 4 -1 18 4 32 12
33 18 126 22 153 7 78 -44 81 -62 82 -417 l0 -305 72 -3 71 -3 0 265 c0 286 7
348 49 403 76 100 264 89 299 -17 4 -14 8 -164 9 -335 l0 -310 73 -3 73 -3 -3
343 c-4 377 -4 378 -67 451 -57 64 -186 89 -288 55 -32 -11 -63 -26 -69 -34
-6 -8 -15 -14 -20 -14 -5 0 -25 -19 -46 -42 -27 -30 -38 -38 -38 -25 0 9 -4
17 -10 17 -5 0 -10 5 -10 12 0 6 -16 26 -35 43 -59 55 -172 73 -270 44z"/>
<path d="M6238 2654 c-2 -1 -20 -5 -40 -8 -40 -6 -115 -34 -137 -51 -76 -58
-150 -161 -154 -215 -1 -11 -4 -20 -7 -20 -17 0 -17 -285 1 -307 1 -2 3 -7 4
-13 1 -5 4 -12 5 -15 1 -3 3 -8 4 -12 1 -5 10 -26 21 -48 39 -80 142 -160 232
-181 87 -20 281 -5 303 24 3 4 19 14 35 22 17 8 39 24 50 35 27 27 77 95 70
95 -3 0 4 17 15 37 11 21 16 41 12 45 -4 4 -37 9 -74 12 l-67 6 -17 -36 c-50
-106 -182 -163 -281 -122 -15 6 -33 12 -40 14 -22 4 -81 65 -102 107 -22 42
-32 81 -35 127 l-1 25 313 0 c271 0 312 2 313 15 15 230 -102 414 -290 455
-32 7 -129 14 -133 9z m143 -143 c70 -37 110 -94 124 -176 l6 -41 -233 1 -233
0 3 35 c4 49 43 120 85 154 67 54 174 65 248 27z"/>
<path d="M7118 2645 c-54 -12 -98 -46 -123 -95 -15 -29 -19 -32 -24 -17 -4 10
-6 35 -5 57 0 22 -2 41 -5 41 -32 7 -121 3 -122 -6 -1 -14 -1 -807 0 -822 1
-9 22 -13 71 -13 60 0 70 3 71 18 0 9 2 132 3 272 3 255 5 279 28 335 13 34
65 84 88 86 55 5 79 4 107 -8 18 -7 34 -13 36 -13 4 0 29 54 34 75 15 59 15
62 -9 70 -87 28 -105 31 -150 20z"/>
<path d="M7650 2648 c-25 -4 -52 -11 -60 -14 -8 -4 -21 -8 -28 -10 -23 -4 -92
-54 -122 -87 -29 -33 -69 -104 -75 -135 -2 -9 -4 -18 -5 -19 -2 -2 -4 -7 -5
-13 -1 -5 -3 -11 -4 -12 -5 -6 -12 -77 -15 -133 -2 -50 5 -119 17 -170 9 -36
42 -115 49 -115 4 0 8 -6 8 -12 0 -24 102 -107 159 -130 85 -33 226 -32 301 3
96 45 176 145 196 246 7 36 -1 40 -83 47 -51 4 -52 4 -59 -27 -10 -42 -9 -38
-22 -68 -14 -34 -69 -86 -103 -98 -25 -9 -128 -9 -160 0 -49 14 -123 97 -135
151 -24 111 -24 234 0 311 15 49 55 117 68 117 4 0 17 8 28 18 11 9 24 16 28
15 4 -1 12 3 19 8 6 6 34 11 62 13 93 6 178 -52 202 -138 l9 -33 64 11 c36 6
67 14 71 17 10 11 -41 124 -71 159 -72 80 -209 120 -334 98z"/>
<path d="M8490 2652 c-32 -4 -115 -31 -147 -47 -76 -40 -160 -160 -182 -264
-24 -111 -5 -291 41 -381 31 -59 90 -116 154 -146 149 -70 347 -51 456 46 67
59 133 196 91 189 -4 -1 -10 -1 -13 0 -3 1 -30 4 -60 6 l-55 5 -19 -41 c-41
-84 -120 -131 -212 -128 -79 3 -143 39 -199 111 -17 21 -42 110 -41 143 l1 30
310 0 310 0 -1 75 c-1 81 -7 118 -22 147 -6 10 -10 20 -9 23 1 14 -37 79 -66
110 -49 55 -98 87 -158 104 -55 16 -133 24 -179 18z m115 -125 c67 -12 127
-72 153 -151 11 -33 18 -64 16 -71 -6 -15 -462 -16 -467 0 -7 18 28 111 54
143 31 39 73 64 129 78 42 10 61 10 115 1z"/>
<path d="M913 2282 c-21 -3 -23 -8 -20 -70 l2 -67 214 -3 c137 -1 217 1 221 8
3 5 5 37 4 71 l-1 61 -199 2 c-109 0 -209 0 -221 -2z"/>
</g>
</svg>
